<mxfile host="app.diagrams.net" modified="2024-01-01T11:51:38.039Z" agent="Mozilla/5.0 (Macintosh; Intel Mac OS X 10_15_7) AppleWebKit/537.36 (KHTML, like Gecko) Chrome/120.0.0.0 Safari/537.36" version="22.1.16" etag="6m_ZUIj4sxFR5_7h6fGY" type="github">
  <diagram name="Page-1" id="qYo5SiXT2DkqgAw3W_oN">
    <mxGraphModel>
      <root>
        <mxCell id="0" />
        <mxCell id="1" parent="0" />
      </root>
    </mxGraphModel>
  </diagram>
</mxfile>
